<?xml version="1.0" encoding="UTF-8" standalone="no"?>
<!-- Created with Inkscape (http://www.inkscape.org/) -->

<svg
   xmlns:dc="http://purl.org/dc/elements/1.1/"
   xmlns:cc="http://creativecommons.org/ns#"
   xmlns:rdf="http://www.w3.org/1999/02/22-rdf-syntax-ns#"
   xmlns:svg="http://www.w3.org/2000/svg"
   xmlns="http://www.w3.org/2000/svg"
   xmlns:sodipodi="http://sodipodi.sourceforge.net/DTD/sodipodi-0.dtd"
   xmlns:inkscape="http://www.inkscape.org/namespaces/inkscape"
   width="149.04716mm"
   height="149.04716mm"
   viewBox="0 0 149.04717 149.04717"
   version="1.1"
   id="svg8"
   inkscape:version="0.92.3 (2405546, 2018-03-11)"
   sodipodi:docname="auto-rot-gelb.V3.svg"
   inkscape:export-filename="/home/nn/Dokumente/Projekte/Ampel1/img/auto-rot-gelb.V3.100.png"
   inkscape:export-xdpi="17.290001"
   inkscape:export-ydpi="17.290001">
  <defs
     id="defs2" />
  <sodipodi:namedview
     id="base"
     pagecolor="#ffffff"
     bordercolor="#666666"
     borderopacity="1.0"
     inkscape:pageopacity="0.0"
     inkscape:pageshadow="2"
     inkscape:zoom="1.1112534"
     inkscape:cx="59.222496"
     inkscape:cy="276.26462"
     inkscape:document-units="mm"
     inkscape:current-layer="g865"
     showgrid="false"
     inkscape:window-width="1440"
     inkscape:window-height="845"
     inkscape:window-x="0"
     inkscape:window-y="0"
     inkscape:window-maximized="1" />
  <metadata
     id="metadata5">
    <rdf:RDF>
      <cc:Work
         rdf:about="">
        <dc:format>image/svg+xml</dc:format>
        <dc:type
           rdf:resource="http://purl.org/dc/dcmitype/StillImage" />
        <dc:title />
      </cc:Work>
    </rdf:RDF>
  </metadata>
  <g
     inkscape:label="Ebene 1"
     inkscape:groupmode="layer"
     id="layer1"
     transform="translate(199.19596,-41.041481)">
    <g
       id="g865">
      <g
         id="g1606"
         transform="matrix(1.4686889,0,0,1.4686889,94.872833,-215.93676)">
        <circle
           r="50"
           cy="225.24033"
           cx="-149.19595"
           id="circle12"
           style="fill:#ff0000;fill-opacity:1;fill-rule:evenodd;stroke:none;stroke-width:4.02525759;stroke-miterlimit:4;stroke-dasharray:none;stroke-opacity:1"
           inkscape:export-xdpi="19.360001"
           inkscape:export-ydpi="19.360001" />
        <path
           inkscape:connector-curvature="0"
           id="circle1599"
           d="m -199.19596,225.24062 a 50,50 0 0 0 50.00005,50.00005 50,50 0 0 0 50.000045,-50.00005 z"
           style="fill:#ffff00;fill-opacity:1;fill-rule:evenodd;stroke:none;stroke-width:4.02525759;stroke-miterlimit:4;stroke-dasharray:none;stroke-opacity:1" />
      </g>
      <g
         id="g352"
         transform="translate(173.86905,-125.48809)">
        <polygon
           transform="matrix(2.1307326,0,0,2.1307326,-374.76893,155.75892)"
           style="fill:#0000ff"
           points="52.822,38.045 54.853,39.798 54.397,52.154 17.384,52.531 17.384,39.051 18.414,38.511 22.647,27.358 27.455,24.854 44.988,24.812 50.21,28.861 "
           id="polygon229" />
        <polygon
           transform="matrix(2.1307326,0,0,2.1307326,-374.76893,155.75892)"
           style="fill:#92d3f5"
           points="45.846,28.155 26.314,28.155 23.192,37.462 48.756,37.443 "
           id="polygon231" />
        <rect
           style="fill:#ffffff;stroke-width:2.13073254"
           x="-332.20093"
           y="243.82253"
           width="10.653663"
           height="7.4788713"
           id="rect233" />
        <rect
           style="fill:#ffffff;stroke-width:2.13073254"
           x="-276.80188"
           y="243.82253"
           width="10.653663"
           height="7.4788713"
           id="rect235" />
        <rect
           style="fill:#3f3f3f;stroke-width:2.13073254"
           x="-337.17984"
           y="257.70084"
           rx="4.5131044"
           ry="4.5131044"
           width="79.352745"
           height="9.0264225"
           id="rect237" />
        <polyline
           transform="matrix(2.1307326,0,0,2.1307326,-374.76893,155.75892)"
           style="fill:none;stroke:#000000;stroke-width:2;stroke-linecap:round;stroke-linejoin:round"
           points="24.095 37.443 48.756 37.443 45.878 28.852"
           id="polyline240" />
        <line
           style="fill:none;stroke:#000000;stroke-width:4.26146507;stroke-linecap:round;stroke-miterlimit:10"
           x1="-306.58548"
           x2="-287.40891"
           y1="245.59189"
           y2="245.59189"
           stroke-miterlimit="10"
           id="line242" />
        <line
           style="fill:none;stroke:#000000;stroke-width:4.26146507;stroke-linecap:round;stroke-miterlimit:10"
           x1="-306.58548"
           x2="-287.40891"
           y1="251.20103"
           y2="251.20103"
           stroke-miterlimit="10"
           id="line244" />
        <polyline
           transform="matrix(2.1307326,0,0,2.1307326,-374.76893,155.75892)"
           style="fill:none;stroke:#000000;stroke-width:2;stroke-linecap:round;stroke-linejoin:round"
           points="21 44.793 25 44.793 25 42.161"
           id="polyline246" />
        <polyline
           transform="matrix(2.1307326,0,0,2.1307326,-374.76893,155.75892)"
           style="fill:none;stroke:#000000;stroke-width:2;stroke-linecap:round;stroke-linejoin:round"
           points="47 44.793 51 44.793 51 42.161"
           id="polyline248" />
        <rect
           style="stroke-width:2.13073254"
           x="-336.41574"
           y="267.60107"
           rx="3.7394357"
           ry="3.7394357"
           width="12.784395"
           height="7.4788713"
           id="rect250" />
        <rect
           style="stroke-width:2.13073254"
           x="-272.49377"
           y="267.60107"
           rx="3.7394357"
           ry="3.7394357"
           width="12.784395"
           height="7.4788713"
           id="rect252" />
        <rect
           style="stroke-width:2.13073254"
           x="-262.95193"
           y="231.40355"
           rx="3.4875832"
           ry="3.4875832"
           width="10.5793"
           height="6.9751663"
           id="rect254" />
        <rect
           style="stroke-width:2.13073254"
           x="-343.86456"
           y="231.79582"
           rx="3.4875832"
           ry="3.4875832"
           width="10.5793"
           height="6.9751663"
           id="rect256" />
        <path
           style="fill:none;stroke:#000000;stroke-width:4.26146507;stroke-linecap:round;stroke-linejoin:round"
           inkscape:connector-curvature="0"
           d="m -333.01083,237.44545 4.36949,-14.83778 c 2.40304,-8.1607 10.26651,-14.83757 17.47414,-14.83757 h 13.10464"
           id="path258" />
        <path
           style="fill:none;stroke:#000000;stroke-width:4.26146507;stroke-linecap:round;stroke-linejoin:round"
           inkscape:connector-curvature="0"
           d="m -263.11449,237.44503 -4.36928,-14.83736 c -2.40326,-8.1607 -10.26651,-14.83757 -17.47414,-14.83757 h -13.10465"
           id="path260" />
        <path
           style="fill:none;stroke:#000000;stroke-width:4.26146507;stroke-linecap:round;stroke-linejoin:round"
           inkscape:connector-curvature="0"
           d="m -297.50345,267.60107 h -34.83535 a 6.2767121,6.2767121 0 0 1 -6.23601,-6.28012 v -14.9946 c 0,-3.40172 1.89635,-8.68359 5.31127,-8.68359"
           id="path262" />
        <path
           style="fill:none;stroke:#000000;stroke-width:4.26146507;stroke-linecap:round;stroke-linejoin:round"
           inkscape:connector-curvature="0"
           d="m -298.73352,267.60107 h 34.83534 a 6.2767121,6.2767121 0 0 0 6.23602,-6.28012 v -14.9946 c 0,-3.40172 -1.89635,-8.68359 -5.31128,-8.68359"
           id="path264" />
      </g>
    </g>
  </g>
</svg>
