<?xml version="1.0" encoding="UTF-8" standalone="no"?>
<!-- Created with Inkscape (http://www.inkscape.org/) -->

<svg
   xmlns:dc="http://purl.org/dc/elements/1.1/"
   xmlns:cc="http://creativecommons.org/ns#"
   xmlns:rdf="http://www.w3.org/1999/02/22-rdf-syntax-ns#"
   xmlns:svg="http://www.w3.org/2000/svg"
   xmlns="http://www.w3.org/2000/svg"
   xmlns:sodipodi="http://sodipodi.sourceforge.net/DTD/sodipodi-0.dtd"
   xmlns:inkscape="http://www.inkscape.org/namespaces/inkscape"
   width="149.04716mm"
   height="149.04716mm"
   viewBox="0 0 149.04717 149.04717"
   version="1.1"
   id="svg8"
   inkscape:version="0.92.3 (2405546, 2018-03-11)"
   sodipodi:docname="fuss-gruen-V3.svg"
   inkscape:export-filename="/home/nn/Dokumente/Projekte/Ampel1/img/fuss-gruen-V3.100.png"
   inkscape:export-xdpi="17.040001"
   inkscape:export-ydpi="17.040001">
  <defs
     id="defs2" />
  <sodipodi:namedview
     id="base"
     pagecolor="#ffffff"
     bordercolor="#666666"
     borderopacity="1.0"
     inkscape:pageopacity="0.0"
     inkscape:pageshadow="2"
     inkscape:zoom="0.91455197"
     inkscape:cx="-31.712041"
     inkscape:cy="279.47707"
     inkscape:document-units="mm"
     inkscape:current-layer="g865"
     showgrid="false"
     inkscape:window-width="1440"
     inkscape:window-height="845"
     inkscape:window-x="0"
     inkscape:window-y="0"
     inkscape:window-maximized="1" />
  <metadata
     id="metadata5">
    <rdf:RDF>
      <cc:Work
         rdf:about="">
        <dc:format>image/svg+xml</dc:format>
        <dc:type
           rdf:resource="http://purl.org/dc/dcmitype/StillImage" />
        <dc:title />
      </cc:Work>
    </rdf:RDF>
  </metadata>
  <g
     inkscape:label="Ebene 1"
     inkscape:groupmode="layer"
     id="layer1"
     transform="translate(199.19596,-41.041481)">
    <g
       id="g865">
      <circle
         inkscape:export-ydpi="19.360001"
         inkscape:export-xdpi="19.360001"
         style="fill:#00ff00;fill-opacity:1;fill-rule:evenodd;stroke:none;stroke-width:5.99953222;stroke-miterlimit:4;stroke-dasharray:none;stroke-opacity:1"
         id="circle12"
         cx="-124.67238"
         cy="115.56506"
         r="74.523582" />
      <g
         id="g130"
         transform="matrix(1.4569053,0,0,1.4569053,-135.96509,-52.584347)">
        <circle
           style="fill:#0000ff;stroke-width:1.55682659"
           cx="-4.2530985"
           cy="78.903061"
           r="4.6704798"
           id="circle59" />
        <path
           style="fill:#0000ff;stroke-width:1.55682659"
           inkscape:connector-curvature="0"
           d="m -4.7260617,93.679211 c 0,0 0.4729639,5.772713 5.14344371,14.076829 0.38002137,0.67644 1.60539959,2.65906 1.60539959,2.65906 l -9.3409596,18.16038 -0.3892067,28.02288 h 5.330263 l 2.8430767,-23.3524 9.3409596,-9.34096 9.3409594,-7.78413 v -6.22731 L 9.8069146,92.768467"
           id="path61" />
        <polyline
           transform="matrix(1.5568266,0,0,1.5568266,-46.238843,58.518282)"
           style="fill:#fcea2b"
           points="42 36 49 46 59.167 52 58.167 55 46 50 37 42"
           id="polyline63" />
        <path
           style="fill:#0000ff;stroke-width:1.55682659"
           inkscape:connector-curvature="0"
           d="M 9.8069146,92.768467 C 6.6932614,86.541161 3.0200847,86.178576 0.41738201,87.190357 A 6.3951323,6.3951323 0 0 0 -2.6476982,95.88212"
           id="path65" />
        <circle
           style="fill:none;stroke:#000000;stroke-width:3.11365318;stroke-miterlimit:10"
           cx="-4.2530985"
           cy="78.903061"
           r="4.6704798"
           stroke-miterlimit="10"
           id="circle68" />
        <path
           style="fill:#0000ff;stroke:#000000;stroke-width:3.11365318;stroke-linecap:round;stroke-linejoin:round"
           inkscape:connector-curvature="0"
           d="m 19.147874,114.56404 9.112885,13.01709 a 17.163858,17.163858 0 0 0 4.466847,4.13385 l 10.464365,6.17562 a 3.6792483,3.6792483 0 0 1 1.903532,3.91791 2.631037,2.631037 0 0 1 -3.658542,1.15205 L 28.25531,137.5428 a 21.957949,21.957949 0 0 1 -5.207118,-3.25205 L 11.363741,123.905"
           id="path70" />
        <path
           style="fill:none;stroke:#000000;stroke-width:3.11365318;stroke-linecap:round;stroke-linejoin:round"
           inkscape:connector-curvature="0"
           d="m 1.7856769,107.33943 c 0,0 0.4047749,0.92429 0.8968878,2.05501 a 5.8091428,5.8091428 0 0 1 -0.7752996,4.68262 l -7.5531,11.87081 a 12.957935,12.957935 0 0 0 -1.7148445,5.74126 l -0.3042039,21.79557 a 2.8779497,2.8779497 0 0 0 2.6226301,3.11366 3.3862535,3.3862535 0 0 0 3.0421949,-3.09093 l 2.0889499,-17.17055 a 10.569296,10.569296 0 0 1 2.5785719,-5.29243 l 4.9379426,-4.93794 c 1.210277,-1.21028 3.2778989,-3.09809 4.5926389,-4.19472 l 4.558388,-3.79819 a 7.5719375,7.5719375 0 0 0 2.391441,-5.10639 v 0 a 14.49172,14.49172 0 0 0 -1.49144,-5.84728 L 9.8069146,92.768467"
           id="path72" />
        <path
           style="fill:#0000ff;stroke:#000000;stroke-width:3.11365318;stroke-linecap:round;stroke-linejoin:round"
           inkscape:connector-curvature="0"
           d="M 9.8069146,92.768467 C 6.6932614,86.541161 3.0200847,86.178576 0.41738201,87.190357 a 6.0077938,6.0077938 0 0 0 -3.68781081,5.968874"
           id="path74" />
        <path
           style="fill:none;stroke:#000000;stroke-width:3.11365318;stroke-linecap:round;stroke-linejoin:round"
           inkscape:connector-curvature="0"
           d="m 1.9254799,92.768467 -2.20898123,7.904163 a 4.3214393,4.3214393 0 0 1 -3.92102347,2.99362 H -15.102311"
           id="path76" />
      </g>
    </g>
  </g>
</svg>
