<?xml version="1.0" encoding="UTF-8" standalone="no"?>
<!-- Created with Inkscape (http://www.inkscape.org/) -->

<svg
   xmlns:dc="http://purl.org/dc/elements/1.1/"
   xmlns:cc="http://creativecommons.org/ns#"
   xmlns:rdf="http://www.w3.org/1999/02/22-rdf-syntax-ns#"
   xmlns:svg="http://www.w3.org/2000/svg"
   xmlns="http://www.w3.org/2000/svg"
   xmlns:sodipodi="http://sodipodi.sourceforge.net/DTD/sodipodi-0.dtd"
   xmlns:inkscape="http://www.inkscape.org/namespaces/inkscape"
   width="13.555581mm"
   height="13.933394mm"
   viewBox="0 0 13.555582 13.933395"
   version="1.1"
   id="svg8"
   inkscape:version="0.92.3 (2405546, 2018-03-11)"
   sodipodi:docname="gps.svg"
   inkscape:export-filename="/home/nn/Dokumente/Projekte/Ampel1/img/gps.50.png"
   inkscape:export-xdpi="91.147926"
   inkscape:export-ydpi="91.147926">
  <defs
     id="defs2" />
  <sodipodi:namedview
     id="base"
     pagecolor="#ffffff"
     bordercolor="#666666"
     borderopacity="1.0"
     inkscape:pageopacity="0.0"
     inkscape:pageshadow="2"
     inkscape:zoom="12.266992"
     inkscape:cx="25.616846"
     inkscape:cy="26.330824"
     inkscape:document-units="mm"
     inkscape:current-layer="g865"
     showgrid="false"
     inkscape:window-width="1440"
     inkscape:window-height="845"
     inkscape:window-x="0"
     inkscape:window-y="0"
     inkscape:window-maximized="1" />
  <metadata
     id="metadata5">
    <rdf:RDF>
      <cc:Work
         rdf:about="">
        <dc:format>image/svg+xml</dc:format>
        <dc:type
           rdf:resource="http://purl.org/dc/dcmitype/StillImage" />
        <dc:title></dc:title>
      </cc:Work>
    </rdf:RDF>
  </metadata>
  <g
     inkscape:label="Ebene 1"
     inkscape:groupmode="layer"
     id="layer1"
     transform="translate(119.69343,-77.439224)">
    <g
       id="g865">
      <g
         id="g352"
         transform="rotate(38.895113,-24.03128,396.35549)">
        <g
           id="g235">
          <path
             style="fill:none;stroke:none;stroke-width:0.26458332"
             inkscape:connector-curvature="0"
             d="M -288.94195,208.71243"
             id="path169" />
          <path
             style="fill:#ea5a47;stroke:none;stroke-width:0.26458332"
             inkscape:connector-curvature="0"
             d="m -289.08173,202.71724 c -1.69907,0 -3.08131,1.38224 -3.08131,3.08131 0,1.69908 1.38224,3.08131 3.08131,3.08131 1.69905,0 3.08131,-1.38223 3.08131,-3.08131 0,-1.69907 -1.38226,-3.08131 -3.08131,-3.08131 z"
             id="path171" />
          <path
             style="fill:#d22f27;stroke:none;stroke-width:0.26458332"
             inkscape:connector-curvature="0"
             d="m -288.2358,208.71325 c 0.45662,-0.17081 0.87021,-0.21605 1.27378,-0.58525 0.55597,-0.50861 1.0328,-1.41283 1.0328,-2.12297 0,-0.64688 -0.15293,-1.40311 -0.61968,-2.01969 -0.43063,-0.56886 -1.15379,-1.01643 -1.6869,-1.20492 0,0 0.93067,1.49522 0.93067,3.00935 0,1.51413 -0.93067,2.92348 -0.93067,2.92348 z"
             id="path173" />
          <path
             style="fill:#d0cfce;stroke:none;stroke-width:0.26458332"
             inkscape:connector-curvature="0"
             d="m -289.11737,215.88531 0.75319,-2.02946 c 0,0 -0.21823,-5.1797 -0.10022,-5.20634 h -1.36771 c 0.11798,0.0266 -0.0594,5.17496 -0.0594,5.17496 z"
             id="path175" />
          <path
             style="fill:#9b9b9a;stroke:none;stroke-width:0.26458332"
             inkscape:connector-curvature="0"
             d="m -289.08599,215.68655 0.70088,-1.87253 c 0,0 0.0276,-5.04235 0.0165,-5.16642 l -0.77605,0.002 z"
             id="path177" />
          <circle
             style="fill:none;stroke:#000000;stroke-width:0.52916664;stroke-linecap:round;stroke-linejoin:round;stroke-miterlimit:10"
             cx="-289.08179"
             cy="205.79855"
             r="3.1243057"
             stroke-miterlimit="10"
             id="circle183" />
          <polyline
             transform="matrix(0.26458333,0,0,0.26458333,-298.59924,199.08723)"
             style="fill:none;stroke:#000000;stroke-width:2;stroke-linecap:round;stroke-linejoin:round;stroke-miterlimit:10"
             stroke-miterlimit="10"
             points="38.5196,37.0981 38.5196,55.7135 35.9356,64.2191 32.9209,55.7135 32.9209,37.0981"
             id="polyline185" />
        </g>
        <g
           id="g251"
           transform="translate(1.3229167e-5)">
          <path
             id="path237"
             d="M -288.94195,208.71243"
             inkscape:connector-curvature="0"
             style="fill:none;stroke:none;stroke-width:0.26458332" />
          <path
             id="path239"
             d="m -289.08173,202.71724 c -1.69907,0 -3.08131,1.38224 -3.08131,3.08131 0,1.69908 1.38224,3.08131 3.08131,3.08131 1.69905,0 3.08131,-1.38223 3.08131,-3.08131 0,-1.69907 -1.38226,-3.08131 -3.08131,-3.08131 z"
             inkscape:connector-curvature="0"
             style="fill:#ea5a47;stroke:none;stroke-width:0.26458332" />
          <path
             id="path241"
             d="m -288.2358,208.71325 c 0.45662,-0.17081 0.87021,-0.21605 1.27378,-0.58525 0.55597,-0.50861 1.0328,-1.41283 1.0328,-2.12297 0,-0.64688 -0.15293,-1.40311 -0.61968,-2.01969 -0.43063,-0.56886 -1.15379,-1.01643 -1.6869,-1.20492 0,0 0.93067,1.49522 0.93067,3.00935 0,1.51413 -0.93067,2.92348 -0.93067,2.92348 z"
             inkscape:connector-curvature="0"
             style="fill:#d22f27;stroke:none;stroke-width:0.26458332" />
          <path
             id="path243"
             d="m -289.11737,215.88531 0.75319,-2.02946 c 0,0 -0.21823,-5.1797 -0.10022,-5.20634 h -1.36771 c 0.11798,0.0266 -0.0594,5.17496 -0.0594,5.17496 z"
             inkscape:connector-curvature="0"
             style="fill:#d0cfce;stroke:none;stroke-width:0.26458332" />
          <path
             id="path245"
             d="m -289.08599,215.68655 0.70088,-1.87253 c 0,0 0.0276,-5.04235 0.0165,-5.16642 l -0.77605,0.002 z"
             inkscape:connector-curvature="0"
             style="fill:#9b9b9a;stroke:none;stroke-width:0.26458332" />
          <circle
             id="circle247"
             stroke-miterlimit="10"
             r="3.1243057"
             cy="205.79855"
             cx="-289.08179"
             style="fill:none;stroke:#000000;stroke-width:0.52916664;stroke-linecap:round;stroke-linejoin:round;stroke-miterlimit:10" />
          <polyline
             id="polyline249"
             points="38.5196,37.0981 38.5196,55.7135 35.9356,64.2191 32.9209,55.7135 32.9209,37.0981"
             stroke-miterlimit="10"
             style="fill:none;stroke:#000000;stroke-width:2;stroke-linecap:round;stroke-linejoin:round;stroke-miterlimit:10"
             transform="matrix(0.26458333,0,0,0.26458333,-298.59924,199.08723)" />
        </g>
      </g>
    </g>
  </g>
</svg>
